<svg width="122" height="20" viewBox="0 0 122 20" fill="none" xmlns="http://www.w3.org/2000/svg">
<path d="M10 18C8.90667 18 7.87333 17.79 6.9 17.37C5.92667 16.95 5.07667 16.3767 4.35 15.65C3.62333 14.9233 3.05 14.0733 2.63 13.1C2.21 12.1267 2 11.0933 2 10C2 8.89333 2.21 7.85333 2.63 6.88C3.05 5.90667 3.62333 5.06 4.35 4.34C5.07667 3.62 5.92667 3.05 6.9 2.63C7.87333 2.21 8.90667 2 10 2C11.1067 2 12.1467 2.21 13.12 2.63C14.0933 3.05 14.94 3.62 15.66 4.34C16.38 5.06 16.95 5.90667 17.37 6.88C17.79 7.85333 18 8.89333 18 10C18 11.0933 17.79 12.1267 17.37 13.1C16.95 14.0733 16.38 14.9233 15.66 15.65C14.94 16.3767 14.0933 16.95 13.12 17.37C12.1467 17.79 11.1067 18 10 18Z" fill="#266F39"/>
<path d="M40 17.5C38.9067 17.5 37.8733 17.29 36.9 16.87C35.9267 16.45 35.0767 15.8767 34.35 15.15C33.6233 14.4233 33.05 13.5733 32.63 12.6C32.21 11.6267 32 10.5933 32 9.5C32 8.39333 32.21 7.35333 32.63 6.38C33.05 5.40667 33.6233 4.56 34.35 3.84C35.0767 3.12 35.9267 2.55 36.9 2.13C37.8733 1.71 38.9067 1.5 40 1.5C41.1067 1.5 42.1467 1.71 43.12 2.13C44.0933 2.55 44.94 3.12 45.66 3.84C46.38 4.56 46.95 5.40667 47.37 6.38C47.79 7.35333 48 8.39333 48 9.5C48 10.5933 47.79 11.6267 47.37 12.6C46.95 13.5733 46.38 14.4233 45.66 15.15C44.94 15.8767 44.0933 16.45 43.12 16.87C42.1467 17.29 41.1067 17.5 40 17.5Z" fill="#FDFDFD"/>
<path d="M70 18C68.9067 18 67.8733 17.79 66.9 17.37C65.9267 16.95 65.0767 16.3767 64.35 15.65C63.6233 14.9233 63.05 14.0733 62.63 13.1C62.21 12.1267 62 11.0933 62 10C62 8.89333 62.21 7.85333 62.63 6.88C63.05 5.90667 63.6233 5.06 64.35 4.34C65.0767 3.62 65.9267 3.05 66.9 2.63C67.8733 2.21 68.9067 2 70 2C71.1067 2 72.1467 2.21 73.12 2.63C74.0933 3.05 74.94 3.62 75.66 4.34C76.38 5.06 76.95 5.90667 77.37 6.88C77.79 7.85333 78 8.89333 78 10C78 11.0933 77.79 12.1267 77.37 13.1C76.95 14.0733 76.38 14.9233 75.66 15.65C74.94 16.3767 74.0933 16.95 73.12 17.37C72.1467 17.79 71.1067 18 70 18Z" fill="#FDFDFD"/>
<path d="M70 18C68.9067 18 67.8733 17.79 66.9 17.37C65.9267 16.95 65.0767 16.3767 64.35 15.65C63.6233 14.9233 63.05 14.0733 62.63 13.1C62.21 12.1267 62 11.0933 62 10C62 8.89333 62.21 7.85333 62.63 6.88C63.05 5.90667 63.6233 5.06 64.35 4.34C65.0767 3.62 65.9267 3.05 66.9 2.63C67.8733 2.21 68.9067 2 70 2C71.1067 2 72.1467 2.21 73.12 2.63C74.0933 3.05 74.94 3.62 75.66 4.34C76.38 5.06 76.95 5.90667 77.37 6.88C77.79 7.85333 78 8.89333 78 10C78 11.0933 77.79 12.1267 77.37 13.1C76.95 14.0733 76.38 14.9233 75.66 15.65C74.94 16.3767 74.0933 16.95 73.12 17.37C72.1467 17.79 71.1067 18 70 18Z" fill="#FDFDFD"/>
<path d="M100 18C98.9067 18 97.8733 17.79 96.9 17.37C95.9267 16.95 95.0767 16.3767 94.35 15.65C93.6233 14.9233 93.05 14.0733 92.63 13.1C92.21 12.1267 92 11.0933 92 10C92 8.89333 92.21 7.85333 92.63 6.88C93.05 5.90667 93.6233 5.06 94.35 4.34C95.0767 3.62 95.9267 3.05 96.9 2.63C97.8733 2.21 98.9067 2 100 2C101.107 2 102.147 2.21 103.12 2.63C104.093 3.05 104.94 3.62 105.66 4.34C106.38 5.06 106.95 5.90667 107.37 6.88C107.79 7.85333 108 8.89333 108 10C108 11.0933 107.79 12.1267 107.37 13.1C106.95 14.0733 106.38 14.9233 105.66 15.65C104.94 16.3767 104.093 16.95 103.12 17.37C102.147 17.79 101.107 18 100 18Z" fill="#FDFDFD"/>
</svg>
