<svg width="48" height="48" viewBox="0 0 48 48" fill="none" xmlns="http://www.w3.org/2000/svg">
<path d="M9.80026 44C9.80026 44.5523 10.248 45 10.8003 45C11.3525 45 11.8003 44.5523 11.8003 44H9.80026ZM10.8003 36.0817H11.8003L11.8002 36.0741L10.8003 36.0817ZM10.7699 35.8546L9.80569 36.1199H9.80569L10.7699 35.8546ZM7.42639 28.3329L6.54598 28.8071H6.54598L7.42639 28.3329ZM29.712 5.69547L29.2351 6.57445L29.2351 6.57446L29.712 5.69547ZM38.6391 18.2349L37.6394 18.2563V18.2563L38.6391 18.2349ZM5.03079 19.3791L6.02801 19.4535L5.03079 19.3791ZM10.2745 7.74747L10.9129 8.51716L10.2745 7.74747ZM38.8 18.7615L37.9647 19.3113V19.3113L38.8 18.7615ZM42.8421 24.9016L42.0068 25.4515V25.4515L42.8421 24.9016ZM42.5591 26.2329L42.0135 25.3949H42.0135L42.5591 26.2329ZM38.6422 28.7829L38.0966 27.9449L37.6422 28.2407V28.7829H38.6422ZM38.6113 34.5407L39.573 34.8148L39.573 34.8148L38.6113 34.5407ZM29.1866 39.044L29.3783 38.0625L28.1866 37.8298V39.044H29.1866ZM28.1866 44C28.1866 44.5523 28.6343 45 29.1866 45C29.7389 45 30.1866 44.5523 30.1866 44H28.1866ZM12.8505 14.9305C12.8505 14.3782 12.4028 13.9305 11.8505 13.9305C11.2982 13.9305 10.8505 14.3782 10.8505 14.9305H12.8505ZM16.2211 24.1246L15.8612 23.1916L16.2211 24.1246ZM22.6806 24.3144L22.2382 25.2112L22.6806 25.4295L23.123 25.2112L22.6806 24.3144ZM29.1415 24.1177L28.7614 25.0426H28.7614L29.1415 24.1177ZM29.4451 14.592L28.9278 15.4479V15.4479L29.4451 14.592ZM15.8963 14.5895L15.3017 13.7855L15.8963 14.5895ZM11.8003 44V36.0817H9.80026V44H11.8003ZM11.734 35.5894C11.4023 34.3834 10.3597 31.67 8.30681 27.8587L6.54598 28.8071C8.55988 32.5461 9.52863 35.1129 9.80569 36.1199L11.734 35.5894ZM29.2351 6.57446C33.7549 9.02646 37.5224 12.784 37.6394 18.2563L39.6389 18.2136C39.4994 11.6904 34.9794 7.41538 30.1888 4.81649L29.2351 6.57446ZM6.02801 19.4535C6.3313 15.392 7.5501 11.3064 10.9129 8.51716L9.63609 6.97777C5.67469 10.2635 4.35567 14.991 4.03357 19.3046L6.02801 19.4535ZM10.9129 8.51716C13.0983 6.70456 16.3875 5.50118 19.8347 5.1251C23.2831 4.74887 26.7336 5.21736 29.2351 6.57445L30.1888 4.81649C27.2247 3.20846 23.3333 2.73154 19.6178 3.13689C15.9011 3.54238 12.2044 4.84756 9.63609 6.97777L10.9129 8.51716ZM37.9647 19.3113L42.0068 25.4515L43.6774 24.3517L39.6353 18.2116L37.9647 19.3113ZM42.0135 25.3949L38.0966 27.9449L39.1878 29.621L43.1047 27.071L42.0135 25.3949ZM37.6422 28.7829V34.3068H39.6422V28.7829H37.6422ZM37.6496 34.2666C37.4109 35.104 36.7304 36.3236 35.4388 37.1948C34.1757 38.0467 32.2438 38.6222 29.3783 38.0625L28.9949 40.0255C32.3183 40.6746 34.803 40.036 36.5572 38.8529C38.2829 37.6889 39.2202 36.0525 39.573 34.8148L37.6496 34.2666ZM28.1866 39.044V44H30.1866V39.044H28.1866ZM10.8505 14.9305V26.2764H12.8505V14.9305H10.8505ZM12.8358 28.2438H32.4041V26.2438H12.8358V28.2438ZM34.3893 26.2764V14.9305H32.3893V26.2764H34.3893ZM37.6422 34.3068C37.6422 34.3094 37.642 34.2932 37.6496 34.2666L39.573 34.8148C39.6242 34.6351 39.6422 34.4633 39.6422 34.3068H37.6422ZM37.6394 18.2563C37.6471 18.6191 37.7521 18.9883 37.9647 19.3113L39.6353 18.2116C39.6387 18.2168 39.6397 18.22 39.6397 18.22C39.6397 18.2201 39.6395 18.2195 39.6393 18.2183C39.6391 18.2171 39.639 18.2155 39.6389 18.2136L37.6394 18.2563ZM32.4041 28.2438C33.4831 28.2438 34.3893 27.3801 34.3893 26.2764H32.3893C32.3893 26.2711 32.3906 26.2639 32.3935 26.2573C32.396 26.2514 32.3987 26.2483 32.4001 26.2469C32.4015 26.2455 32.4028 26.2447 32.404 26.2442C32.4059 26.2434 32.4065 26.2438 32.4041 26.2438V28.2438ZM8.30681 27.8587C6.84264 25.1403 5.81481 22.3087 6.02801 19.4535L4.03357 19.3046C3.77822 22.7241 5.01453 25.9638 6.54598 28.8071L8.30681 27.8587ZM42.0068 25.4515C42.0051 25.4489 42.0023 25.443 42.0009 25.4352C41.9996 25.428 41.9999 25.4216 42.001 25.4164C42.0021 25.4112 42.0041 25.4064 42.0071 25.402C42.0104 25.3972 42.0135 25.3949 42.0135 25.3949L43.1047 27.071C44.0131 26.4796 44.2789 25.2655 43.6774 24.3517L42.0068 25.4515ZM10.8505 26.2764C10.8505 27.3801 11.7567 28.2438 12.8358 28.2438V26.2438C12.8334 26.2438 12.834 26.2434 12.8358 26.2442C12.837 26.2447 12.8383 26.2455 12.8397 26.2469C12.8411 26.2483 12.8438 26.2514 12.8464 26.2573C12.8492 26.2639 12.8505 26.2711 12.8505 26.2764H10.8505ZM11.8002 36.0741C11.7991 35.9202 11.7802 35.7572 11.734 35.5894L9.80569 36.1199C9.80323 36.111 9.8018 36.1032 9.80103 36.0974C9.80028 36.0916 9.80028 36.0887 9.80029 36.0893L11.8002 36.0741ZM16.581 25.0576C17.7962 24.5888 20.1237 24.1682 22.2382 25.2112L23.123 23.4176C20.3197 22.0348 17.3641 22.6118 15.8612 23.1916L16.581 25.0576ZM23.123 25.2112C24.0497 24.7541 26.4798 24.1049 28.7614 25.0426L29.5216 23.1927C26.5404 21.9676 23.4899 22.8002 22.2382 23.4176L23.123 25.2112ZM30.5773 23.8438V14.8303H28.5773V23.8438H30.5773ZM29.9623 13.7362C28.553 12.8843 25.2389 11.7958 22.1311 13.8399L23.2301 15.5108C25.4395 14.0577 27.8697 14.8083 28.9278 15.4479L29.9623 13.7362ZM23.1717 13.8043C22.4111 13.3754 21.1601 12.8816 19.765 12.7244C18.3656 12.5666 16.717 12.7389 15.3017 13.7855L16.4908 15.3935C17.367 14.7456 18.4509 14.5889 19.541 14.7118C20.6354 14.8351 21.6308 15.2315 22.1895 15.5465L23.1717 13.8043ZM14.7839 14.8144V23.8438H16.7839V14.8144H14.7839ZM21.6806 14.6754V24.3144H23.6806V14.6754H21.6806ZM30.5773 14.8303C30.5773 14.4011 30.3608 13.9771 29.9623 13.7362L28.9278 15.4479C28.6972 15.3085 28.5773 15.0658 28.5773 14.8303H30.5773ZM28.7614 25.0426C29.5442 25.3643 30.5773 24.8539 30.5773 23.8438H28.5773C28.5773 23.567 28.7325 23.3524 28.9081 23.2434C29.0794 23.1371 29.3069 23.1045 29.5216 23.1927L28.7614 25.0426ZM15.3017 13.7855C14.9671 14.0329 14.7839 14.4196 14.7839 14.8144H16.7839C16.7839 15.0334 16.6824 15.2519 16.4908 15.3935L15.3017 13.7855ZM15.8612 23.1916C16.0746 23.1093 16.2961 23.1456 16.4611 23.2502C16.6305 23.3576 16.7839 23.5685 16.7839 23.8438H14.7839C14.7839 24.8465 15.802 25.3581 16.581 25.0576L15.8612 23.1916Z" fill="#266F39"/>
</svg>
