<svg width="48" height="48" viewBox="0 0 48 48" fill="none" xmlns="http://www.w3.org/2000/svg">
<mask id="path-1-outside-1_484_2115" maskUnits="userSpaceOnUse" x="17" y="24" width="14" height="12" fill="black">
<rect fill="white" x="17" y="24" width="14" height="12"/>
<path fill-rule="evenodd" clip-rule="evenodd" d="M24 26C23.3628 26 22.8462 26.5166 22.8462 27.1538V27.1693C22.8462 27.5578 22.3947 27.7717 22.0941 27.5257C21.6345 27.1496 20.9073 27.1702 20.4698 27.5718C20.0323 27.9733 20.0502 28.6037 20.5098 28.9798C20.655 29.0986 20.5709 29.334 20.3833 29.334H20C19.4477 29.334 19 29.7817 19 30.334C19 30.8863 19.4477 31.334 20 31.334H20.4651C20.6423 31.334 20.7237 31.5545 20.589 31.6697C20.1362 32.0568 20.132 32.6893 20.5795 33.0825C21.027 33.4757 21.7569 33.4806 22.2096 33.0935L22.6206 32.7422C22.7093 32.6664 22.8462 32.7294 22.8462 32.8462C22.8462 33.4834 23.3628 34 24 34C24.6373 34 25.1539 33.4834 25.1539 32.8462C25.1539 32.8199 25.1844 32.8054 25.2048 32.822L25.7737 33.2877C26.2333 33.6637 26.9605 33.6431 27.398 33.2416C27.8355 32.84 27.8177 32.2096 27.3581 31.8335C27.1533 31.6659 27.2718 31.334 27.5364 31.334H28C28.5523 31.334 29 30.8863 29 30.334C29 29.7817 28.5523 29.334 28 29.334H27.7933C27.3864 29.334 27.1995 28.8276 27.5087 28.5632C27.9615 28.1761 27.9658 27.5436 27.5182 27.1504C27.0707 26.7572 26.3409 26.7523 25.8881 27.1394L25.62 27.3686C25.4366 27.5253 25.1539 27.3951 25.1539 27.1538C25.1539 26.5166 24.6373 26 24 26Z"/>
</mask>
<path d="M20.4698 27.5718L19.1174 26.0983L19.1174 26.0983L20.4698 27.5718ZM20.5795 33.0825L21.8995 31.58L20.5795 33.0825ZM22.2096 33.0935L20.91 31.5733L22.2096 33.0935ZM25.7737 33.2877L24.5071 34.8354H24.5071L25.7737 33.2877ZM27.398 33.2416L28.7504 34.715L28.7504 34.715L27.398 33.2416ZM27.5182 27.1504L28.8383 25.6479V25.6479L27.5182 27.1504ZM25.8881 27.1394L24.5884 25.6192L24.5884 25.6192L25.8881 27.1394ZM25.62 27.3686L24.3203 25.8484L25.62 27.3686ZM27.5087 28.5632L28.8083 30.0834V30.0834L27.5087 28.5632ZM25.2048 32.822L26.4714 31.2743L25.2048 32.822ZM20.589 31.6697L21.8887 33.1899H21.8887L20.589 31.6697ZM22.0941 27.5257L23.3608 25.9779V25.9779L22.0941 27.5257ZM24.8462 27.1538C24.8462 27.6212 24.4673 28 24 28V24C22.2582 24 20.8462 25.412 20.8462 27.1538H24.8462ZM24.8462 27.1693V27.1538H20.8462V27.1693H24.8462ZM21.8222 29.0452C21.6474 29.2056 21.4619 29.2525 21.3304 29.2563C21.1989 29.26 21.011 29.2237 20.8275 29.0734L23.3608 25.9779C22.1312 24.9717 20.2879 25.024 19.1174 26.0983L21.8222 29.0452ZM21.7764 27.432C21.9742 27.5939 22.1426 27.8768 22.1526 28.2286C22.1626 28.5804 22.0105 28.8724 21.8222 29.0452L19.1174 26.0983C17.783 27.3231 17.8413 29.3804 19.2431 30.5276L21.7764 27.432ZM20 31.334H20.3833V27.334H20V31.334ZM21 30.334C21 30.8863 20.5523 31.334 20 31.334V27.334C18.3431 27.334 17 28.6771 17 30.334H21ZM20 29.334C20.5523 29.334 21 29.7817 21 30.334H17C17 31.9908 18.3431 33.334 20 33.334V29.334ZM20.4651 29.334H20V33.334H20.4651V29.334ZM21.8995 31.58C22.0909 31.7481 22.249 32.036 22.2466 32.3873C22.2442 32.7386 22.0822 33.0244 21.8887 33.1899L19.2894 30.1495C17.9111 31.3279 17.8972 33.3881 19.2594 34.585L21.8995 31.58ZM20.91 31.5733C21.0896 31.4198 21.2756 31.3798 21.4061 31.3807C21.5366 31.3815 21.722 31.4241 21.8995 31.58L19.2594 34.585C20.4543 35.6348 22.3004 35.6472 23.5093 34.6137L20.91 31.5733ZM21.3209 31.222L20.91 31.5733L23.5093 34.6137L23.9202 34.2624L21.3209 31.222ZM24 32C24.4673 32 24.8462 32.3788 24.8462 32.8462H20.8462C20.8462 34.588 22.2582 36 24 36V32ZM23.1539 32.8462C23.1539 32.3788 23.5327 32 24 32V36C25.7418 36 27.1539 34.588 27.1539 32.8462H23.1539ZM27.0404 31.7399L26.4714 31.2743L23.9381 34.3698L24.5071 34.8354L27.0404 31.7399ZM26.0457 31.7681C26.2204 31.6077 26.4059 31.5608 26.5374 31.557C26.6689 31.5533 26.8568 31.5896 27.0404 31.7399L24.5071 34.8354C25.7366 35.8416 27.5799 35.7893 28.7504 34.715L26.0457 31.7681ZM26.0914 33.3813C25.8936 33.2194 25.7253 32.9365 25.7153 32.5847C25.7053 32.2329 25.8573 31.9409 26.0457 31.7681L28.7504 34.715C30.0849 33.4902 30.0265 31.4329 28.6247 30.2857L26.0914 33.3813ZM28 29.334H27.5364V33.334H28V29.334ZM27 30.334C27 29.7817 27.4477 29.334 28 29.334V33.334C29.6569 33.334 31 31.9908 31 30.334H27ZM28 31.334C27.4477 31.334 27 30.8863 27 30.334H31C31 28.6771 29.6569 27.334 28 27.334V31.334ZM27.7933 31.334H28V27.334H27.7933V31.334ZM26.1982 28.6529C26.0069 28.4848 25.8488 28.1969 25.8511 27.8456C25.8535 27.4943 26.0155 27.2085 26.2091 27.043L28.8083 30.0834C30.1867 28.905 30.2006 26.8448 28.8383 25.6479L26.1982 28.6529ZM27.1877 28.6596C27.0082 28.8131 26.8221 28.8531 26.6916 28.8522C26.5612 28.8514 26.3757 28.8088 26.1982 28.6529L28.8383 25.6479C27.6434 24.5981 25.7973 24.5857 24.5884 25.6192L27.1877 28.6596ZM26.9196 28.8888L27.1877 28.6596L24.5884 25.6192L24.3203 25.8484L26.9196 28.8888ZM24 28C23.5327 28 23.1539 27.6212 23.1539 27.1538H27.1539C27.1539 25.412 25.7418 24 24 24V28ZM24.3203 25.8484C25.4349 24.8956 27.1539 25.6876 27.1539 27.1538H23.1539C23.1539 29.1026 25.4384 30.1551 26.9196 28.8888L24.3203 25.8484ZM27.7933 27.334C29.2445 27.334 29.9114 29.1403 28.8083 30.0834L26.2091 27.043C24.4875 28.5148 25.5283 31.334 27.7933 31.334V27.334ZM28.6247 30.2857C29.8744 31.3084 29.1513 33.334 27.5364 33.334V29.334C25.3923 29.334 24.4322 32.0234 26.0914 33.3813L28.6247 30.2857ZM27.1539 32.8462C27.1539 34.5072 25.2236 35.4218 23.9381 34.3698L26.4714 31.2743C25.1452 30.189 23.1539 31.1325 23.1539 32.8462H27.1539ZM23.9202 34.2624C22.7111 35.2961 20.8462 34.4369 20.8462 32.8462H24.8462C24.8462 31.0219 22.7075 30.0366 21.3209 31.222L23.9202 34.2624ZM20.4651 33.334C18.7842 33.334 18.0118 31.2418 19.2894 30.1495L21.8887 33.1899C23.4357 31.8673 22.5004 29.334 20.4651 29.334V33.334ZM19.2431 30.5276C17.9338 29.4561 18.6915 27.334 20.3833 27.334V31.334C22.4504 31.334 23.3761 28.7412 21.7764 27.432L19.2431 30.5276ZM20.8462 27.1693C20.8462 25.8704 22.3556 25.1553 23.3608 25.9779L20.8275 29.0734C22.4339 30.3881 24.8462 29.2451 24.8462 27.1693H20.8462Z" fill="#266F39" mask="url(#path-1-outside-1_484_2115)"/>
<path d="M16 37H2C1.44772 37 1 36.5523 1 36V6C1 5.44772 1.44772 5 2 5H46C46.5523 5 47 5.44772 47 6V36C47 36.5523 46.5523 37 46 37H32" stroke="#266F39" stroke-width="2"/>
<path d="M11 12L37 12" stroke="#266F39" stroke-width="2" stroke-linecap="round"/>
<path d="M11 18H37" stroke="#266F39" stroke-width="2" stroke-linecap="round"/>
<path d="M19 32V42.0705C19 42.7001 19.6937 43.083 20.2264 42.7473L23.8446 40.4679C24.1364 40.2841 24.5131 40.3079 24.7794 40.527L27.6917 42.9234C28.2136 43.3529 29 42.9816 29 42.3057V32" stroke="#266F39" stroke-width="2"/>
</svg>
