<svg width="24" height="24" viewBox="0 0 24 24" fill="none" xmlns="http://www.w3.org/2000/svg">
<path d="M8.74121 21C8.61342 21 8.49627 20.9731 8.38978 20.9193C8.28328 20.8655 8.17678 20.7713 8.07029 20.6368L2.28754 13.3318C2.09585 13.0897 2 12.7937 2 12.4439C2 12.0942 2.09585 11.7982 2.28754 11.5561C2.47923 11.3139 2.70288 11.1928 2.95847 11.1928C3.21406 11.1928 3.4377 11.3139 3.62939 11.5561L8.74121 18.0135L20.3387 3.36323C20.5304 3.12108 20.7593 3 21.0256 3C21.2918 3 21.5208 3.12108 21.7125 3.36323C21.9042 3.60538 22 3.89462 22 4.23094C22 4.56726 21.9042 4.8565 21.7125 5.09865L9.41214 20.6368C9.30564 20.7713 9.19915 20.8655 9.09265 20.9193C8.98616 20.9731 8.86901 21 8.74121 21Z" fill="#225E31"/>
</svg>
