<svg width="20" height="20" viewBox="0 0 20 20" fill="none" xmlns="http://www.w3.org/2000/svg">
<path d="M9.66667 11.0862L4.69835 16.0545C4.51246 16.2404 4.27588 16.3333 3.98859 16.3333C3.70131 16.3333 3.46472 16.2404 3.27883 16.0545C3.09294 15.8686 3 15.632 3 15.3447C3 15.0575 3.09294 14.8209 3.27883 14.635L8.24715 9.66667L3.27883 4.69835C3.09294 4.51246 3 4.27588 3 3.98859C3 3.70131 3.09294 3.46472 3.27883 3.27883C3.46472 3.09294 3.70131 3 3.98859 3C4.27588 3 4.51246 3.09294 4.69835 3.27883L9.66667 8.24715L14.635 3.27883C14.8209 3.09294 15.0575 3 15.3447 3C15.632 3 15.8686 3.09294 16.0545 3.27883C16.2404 3.46472 16.3333 3.70131 16.3333 3.98859C16.3333 4.27588 16.2404 4.51246 16.0545 4.69835L11.0862 9.66667L16.0545 14.635C16.2404 14.8209 16.3333 15.0575 16.3333 15.3447C16.3333 15.632 16.2404 15.8686 16.0545 16.0545C15.8686 16.2404 15.632 16.3333 15.3447 16.3333C15.0575 16.3333 14.8209 16.2404 14.635 16.0545L9.66667 11.0862Z" fill="#266F39"/>
</svg>
