<svg width="48" height="48" viewBox="0 0 48 48" fill="none" xmlns="http://www.w3.org/2000/svg">
<path d="M16.5473 34.5789V25.0789M16.5473 4V12.5789M16.5473 25.0789C16.2171 21.7766 18.1115 15.6935 28.259 17.5251C28.4171 17.5536 28.5294 17.702 28.5028 17.8605C27.7417 22.3943 24.3831 29.7802 16.5473 25.0789ZM16.5473 25.0789C16.2172 21.7794 13.4049 15.7039 4.81324 17.5204C4.66392 17.552 4.56013 17.6999 4.57876 17.8514C5.87058 28.3567 13.0769 27.0619 16.5473 25.0789ZM16.5473 25.0789V12.5789M16.5473 25.0789L9.04688 21.0789M16.5473 25.0789L20.0471 23.0789L23.5469 21.0789M16.5473 12.5789C19.3459 13.5666 24.9087 13.6763 25.0443 6.35416C25.0472 6.20066 24.9263 6.06589 24.7734 6.05223C17.4172 5.39485 16.2179 10.1092 16.5473 12.5789ZM16.5473 12.5789C16.7117 9.94706 15.6746 5.01008 8.34167 6.03496C8.18036 6.05751 8.0644 6.2125 8.08905 6.3735C9.19224 13.5787 14.5734 13.5656 16.5473 12.5789ZM16.5473 12.5789L21.0469 9.07886M16.5473 12.5789L12.0469 9.07886" stroke="#266F39" stroke-width="2" stroke-linecap="round"/>
<mask id="path-2-inside-1_2500_507" fill="white">
<rect x="30.0596" y="26.0791" width="12.3409" height="13" rx="1" transform="rotate(11.1441 30.0596 26.0791)"/>
</mask>
<rect x="30.0596" y="26.0791" width="12.3409" height="13" rx="1" transform="rotate(11.1441 30.0596 26.0791)" stroke="#266F39" stroke-width="4" mask="url(#path-2-inside-1_2500_507)"/>
<path d="M43.5895 44H4.31296C4.16081 44 4.03207 43.8862 4.0205 43.7344C3.80879 40.9571 5.17263 36.3802 11.065 38.4565C11.2442 38.5197 11.4438 38.4102 11.4831 38.2243C11.8821 36.3406 13.1328 33.9309 17.8448 35.4773C18.0537 35.5458 18.2717 35.3795 18.277 35.1597C18.3984 30.0733 27.8942 26.6555 29.9952 35.2453C30.0419 35.4364 30.2544 35.5464 30.4326 35.4631C32.4075 34.5404 35.801 33.5771 37.2906 38.4913C37.3626 38.7291 37.6856 38.8044 37.8764 38.6452C40.0815 36.8055 44.8039 38.07 43.8822 43.7503C43.8591 43.8928 43.7339 44 43.5895 44Z" stroke="#266F39" stroke-width="2"/>
<path d="M36.2774 28.1222L40 9" stroke="#266F39" stroke-width="2" stroke-linecap="round"/>
<mask id="path-5-inside-2_2500_507" fill="white">
<rect x="38.0576" y="4.13477" width="5.86538" height="5.02619" rx="1" transform="rotate(10.0621 38.0576 4.13477)"/>
</mask>
<rect x="38.0576" y="4.13477" width="5.86538" height="5.02619" rx="1" transform="rotate(10.0621 38.0576 4.13477)" stroke="#266F39" stroke-width="4" mask="url(#path-5-inside-2_2500_507)"/>
</svg>
