<svg width="48" height="48" viewBox="0 0 48 48" fill="none" xmlns="http://www.w3.org/2000/svg">
<path fill-rule="evenodd" clip-rule="evenodd" d="M42.9547 4H2C1.44772 4 1 4.44772 1 5C1 5.55228 1.44771 6 2 6H41.9547C42.5069 6 42.9547 6.44771 42.9547 7V35.9689C42.9547 36.5212 42.5069 36.9689 41.9547 36.9689H17.3944C16.8421 36.9689 16.3944 36.5212 16.3944 35.9689V34.6157C16.3944 33.9198 17.0876 33.4366 17.7405 33.6775L21.2646 34.9778C22.1109 35.29 23.0614 34.9972 23.5852 34.2628L30.0747 25.1641L30.1018 25.126L30.1253 25.0856C31.067 23.4642 30.6821 21.7563 29.6534 20.7263C28.63 19.7017 26.9269 19.3396 25.4908 20.4462C25.1434 20.7139 24.9019 21.0458 24.7375 21.2836L20.9242 26.7988C20.6593 27.1818 20.1651 27.3314 19.7324 27.1594L14.9511 25.2596C14.716 25.1662 14.4654 25.1182 14.2125 25.1182H5.9852C4.06064 25.1182 2.76919 25.971 1.99538 27.0813C1.25814 28.1391 1.02344 29.3754 1.02344 30.2111V43.0014C1.02344 43.5536 1.47115 44.0014 2.02344 44.0014H15.3944H15.9193C16.1817 44.0014 16.3944 43.7887 16.3944 43.5263C16.3944 43.264 16.6071 43.0513 16.8694 43.0513H45.5C46.3284 43.0513 47 42.3797 47 41.5513V40.0142C47 38.9355 46.4391 37.9877 45.593 37.4467C45.2343 37.2173 44.9547 36.8515 44.9547 36.4257V6C44.9547 4.89543 44.0592 4 42.9547 4ZM16.3944 40.0513C16.3944 40.6036 16.8421 41.0513 17.3944 41.0513H44C44.5523 41.0513 45 40.6036 45 40.0513V40.0142C45 39.4369 44.532 38.9689 43.9547 38.9689H17.3944C16.8421 38.9689 16.3944 39.4166 16.3944 39.9689V40.0513ZM28.6391 11.6626C28.6391 12.2149 28.1914 12.6626 27.6391 12.6626H18.3789C17.8266 12.6626 17.3789 12.2149 17.3789 11.6626C17.3789 11.1103 17.8266 10.6626 18.3789 10.6626H27.6391C28.1914 10.6626 28.6391 11.1103 28.6391 11.6626ZM13.3947 18.9642C13.3947 21.0789 11.5795 22.9388 9.15683 22.9388C6.73416 22.9388 4.91895 21.0789 4.91895 18.9642C4.91895 16.8494 6.73416 14.9895 9.15683 14.9895C11.5795 14.9895 13.3947 16.8494 13.3947 18.9642ZM15.3947 18.9642C15.3947 22.2638 12.6019 24.9388 9.15683 24.9388C5.71174 24.9388 2.91895 22.2638 2.91895 18.9642C2.91895 15.6645 5.71174 12.9895 9.15683 12.9895C12.6019 12.9895 15.3947 15.6645 15.3947 18.9642ZM26.7116 22.0304C27.2381 21.6247 27.82 21.7208 28.2383 22.1397C28.6449 22.5468 28.8581 23.2519 28.4169 24.0441L22.4005 32.4795C22.1386 32.8467 21.6633 32.9931 21.2402 32.837L17.0867 31.3045C15.7808 30.8227 14.3944 31.7889 14.3944 33.1809V41.0014C14.3944 41.5536 13.9467 42.0014 13.3944 42.0014H4.02344C3.47115 42.0014 3.02344 41.5536 3.02344 41.0014V30.2111C3.02344 29.6826 3.18491 28.8724 3.6362 28.2248C4.05092 27.6298 4.74035 27.1182 5.9852 27.1182H14.0212C14.1476 27.1182 14.2729 27.1422 14.3904 27.1889L19.7332 29.3118C20.5987 29.6558 21.5871 29.3567 22.1168 28.5906L26.3826 22.421C26.5296 22.2083 26.6252 22.097 26.7116 22.0304ZM17.3789 16.4064C17.3789 16.9587 17.8266 17.4064 18.3789 17.4064H38.8993C39.4516 17.4064 39.8993 16.9587 39.8993 16.4064C39.8993 15.8542 39.4516 15.4064 38.8993 15.4064H18.3789C17.8266 15.4064 17.3789 15.8542 17.3789 16.4064ZM39.8984 11.6626C39.8984 12.2149 39.4507 12.6626 38.8984 12.6626H31.6855C31.1333 12.6626 30.6855 12.2149 30.6855 11.6626C30.6855 11.1103 31.1333 10.6626 31.6855 10.6626H38.8984C39.4507 10.6626 39.8984 11.1103 39.8984 11.6626Z" fill="#266F39"/>
</svg>
