<svg width="620" height="593" viewBox="0 0 620 593" fill="none" xmlns="http://www.w3.org/2000/svg">
<path d="M289.481 428.654C307.143 426.098 324.178 421.136 340.653 416.345C350.935 413.362 361.498 410.286 372.004 407.86L372.424 407.766L379.564 406.126L376.847 399.461L376.348 398.247C355.977 348.393 300.701 311.649 241.941 308.873C209.832 307.369 176.735 313.955 151.158 326.937C120.065 342.736 95.2792 369.887 73.1811 396.169C72.02 397.541 68.74 400.372 70.0667 402.517C71.1072 404.195 74.6038 403.687 76.187 403.53C80.1064 403.118 84.0201 402.174 87.8046 401.104C93.2076 399.584 98.551 398.471 104.117 397.813C116.218 396.373 128.541 396.569 140.588 398.406C157.013 400.92 172.164 407.386 187.415 413.66C190.355 414.873 193.218 416.048 196.081 417.198C227.21 429.752 256.889 433.404 289.481 428.679L289.481 428.654Z" fill="#CAD3B7"/>
<path d="M284.016 130.247C291.327 105.996 301.297 82.8475 311.277 59.3902C313.613 53.8988 316.023 49.4714 318.095 45.8834C320.684 61.6228 327.211 76.4407 335.79 85.8141C340.144 90.5718 345.617 94.7504 350.912 98.7768C355.911 102.589 361.082 106.513 365.752 111.191C377.981 123.432 388.005 138.484 394.752 154.745C400.961 169.719 404.334 185.512 404.773 201.702C405.168 216.549 403.103 231.966 398.626 247.522C396.416 255.188 393.897 262.768 391.469 270.093C386.714 284.362 381.876 298.913 379.455 313.702L379.258 314.88L377.359 326.534L370.18 320.913L366.609 318.112C360.072 312.995 352.596 308.533 345.367 304.21C334.702 297.839 323.735 291.278 314.555 282.173C292.888 260.684 277.155 226.458 274.475 194.999C273.201 180.054 275.407 165.106 278.655 150.548C280.187 143.665 281.993 136.915 284.006 130.232L284.016 130.247Z" fill="#CAD3B7"/>
<path d="M381.834 176.01C364.469 192.069 352.294 213.144 346.906 236.057C341.852 218.503 337.708 202.063 334.316 186.759C341.72 169.341 353.405 153.919 368.254 142.098C368.857 141.623 368.953 140.748 368.474 140.147C367.995 139.546 367.105 139.433 366.512 139.923C352.301 151.224 340.926 165.749 333.308 182.153C329.582 164.864 326.835 149.132 324.802 134.98C329.24 123.795 337.948 114.333 348.766 108.985C349.46 108.645 349.732 107.805 349.385 107.127C349.041 106.436 348.221 106.039 347.502 106.504C337.448 111.487 329.107 119.831 324.051 129.804C319.912 99.1289 319.221 76.5019 319.377 63.0088C319.398 61.8601 318.467 60.9095 317.309 60.898C316.167 60.8765 315.2 61.7971 315.192 62.9483C315.04 74.9264 315.576 94.0895 318.555 119.61C312.064 114.398 304.191 111.009 295.869 110.198C295.112 110.137 294.416 110.684 294.342 111.447C294.268 112.209 294.835 112.893 295.602 112.968C304.335 113.81 312.627 117.581 319.031 123.553C320.867 138.429 323.556 155.367 327.381 174.243C314.944 167.349 300.014 165.034 286.103 167.988C285.354 168.149 284.869 168.881 285.031 169.639C285.194 170.384 285.944 170.871 286.693 170.71C300.456 167.778 315.293 170.23 327.4 177.408C327.598 177.525 327.799 177.436 328.017 177.453C331.67 195.038 336.348 214.279 342.264 235.024C327.402 226.828 308.925 225.76 293.481 232.734C292.78 233.047 292.458 233.876 292.775 234.574C293.091 235.272 294.041 235.605 294.627 235.282C309.901 228.377 329.064 229.856 343.316 238.758C347.313 252.538 351.88 266.99 357.054 282.055C348.069 279.207 338.202 279.797 329.603 283.698C328.899 284.023 328.604 284.845 328.921 285.543C329.25 286.244 329.967 286.569 330.779 286.226C339.208 282.395 349.363 281.992 358.023 285.293C358.073 285.303 358.118 285.273 358.165 285.296C387.047 368.44 434.908 470.41 514.183 586.519C514.757 587.36 515.82 587.65 516.729 587.275C516.857 587.223 516.987 587.158 517.095 587.076C518.059 586.427 518.303 585.142 517.647 584.181C439.573 469.828 392.072 369.316 363.202 287.094C364.892 272.704 370.77 258.749 380.017 247.568C380.512 246.981 380.416 246.094 379.821 245.612C379.227 245.13 378.337 245.212 377.854 245.801C369.416 256.004 363.684 268.446 361.24 281.455C356.524 267.751 352.272 254.529 348.54 241.902C353.084 217.538 365.443 194.959 383.703 178.068C384.264 177.546 384.295 176.671 383.768 176.112C383.241 175.554 382.352 175.505 381.788 176.04L381.834 176.01Z" fill="#C5CDB3"/>
<path d="M433.707 445.637C433.423 445.386 405.581 419.953 380.695 404.358C371.237 398.44 361.826 393.233 352.472 388.609C352.872 379.459 350.636 370.045 346.103 362.079C345.725 361.409 344.867 361.177 344.193 361.553C343.583 361.89 343.286 362.782 343.664 363.452C347.728 370.61 349.774 379.01 349.658 387.255C338.853 382.051 328.147 377.709 317.563 374.052C317.563 374.039 317.576 374.039 317.576 374.026C318.31 360.273 315.453 346.471 309.313 334.127C308.973 333.432 308.127 333.161 307.44 333.499C306.741 333.812 306.469 334.666 306.808 335.361C312.621 347.048 315.369 360.102 314.805 373.129C306.211 370.25 297.724 367.84 289.344 365.874C289.188 365.659 289.033 365.432 288.75 365.321C288.34 365.161 287.919 365.254 287.576 365.474C282.963 364.419 278.403 363.491 273.87 362.689C272.307 346.814 266.52 331.608 257.102 318.678C256.648 318.06 255.931 317.941 255.143 318.369C254.522 318.82 254.378 319.686 254.832 320.316C263.809 332.629 269.357 347.088 270.989 362.187C253.358 359.254 236.385 358.118 220.257 358.307C216.746 343.14 207.941 328.945 195.796 319.156C195.19 318.667 194.322 318.753 193.83 319.355C193.35 319.958 193.437 320.833 194.042 321.309C205.555 330.584 213.93 343.983 217.394 358.338C203.479 358.63 190.238 359.867 177.835 361.768C172.734 349.756 163.98 339.13 153.128 331.842C152.497 331.417 151.629 331.579 151.189 332.219C150.748 332.859 150.924 333.721 151.567 334.146C161.802 341.021 170.063 350.966 174.99 362.244C162.627 364.259 151.1 366.849 140.6 369.771C136.519 362.244 129.233 356.315 120.989 353.877C120.245 353.657 119.47 354.072 119.248 354.811C119.026 355.55 119.456 356.32 120.187 356.541C127.534 358.709 134.031 363.923 137.809 370.551C98.7293 381.775 74.4258 396.674 73.8291 397.049C72.8521 397.72 72.5588 398.956 73.1827 399.927C73.8066 400.898 75.1005 401.189 76.0781 400.581C76.7002 400.194 103.633 383.729 146.33 372.554C143.725 378.756 139.155 384.065 133.209 387.344C132.535 387.707 132.289 388.561 132.667 389.23C133.044 389.899 133.891 390.144 134.564 389.781C135.505 389.262 136.419 388.693 137.294 388.087C143.08 384.111 147.427 378.284 149.707 371.653C161.435 368.718 174.317 366.253 188.103 364.59C180.321 376.68 169.681 386.793 157.129 393.879C156.468 394.242 156.222 395.108 156.599 395.778C156.977 396.447 157.836 396.679 158.509 396.303C160.834 394.994 163.094 393.585 165.277 392.075C175.947 384.743 184.97 375.206 191.703 364.145C205.592 362.647 220.4 362.066 235.885 362.722C228.656 381.132 214.469 396.594 196.618 405.351C195.957 405.676 195.633 406.518 195.973 407.213C196.313 407.907 197.147 408.191 197.846 407.853C201.444 406.086 204.912 404.066 208.211 401.807C222.078 392.281 232.923 378.57 238.877 362.842C253.865 363.644 269.493 365.735 285.56 369.332C277.776 387.265 262.727 402.19 244.567 409.579C243.854 409.866 243.505 410.683 243.807 411.391C244.096 412.099 244.917 412.446 245.63 412.146C250.733 410.058 255.612 407.413 260.18 404.276C272.563 395.77 282.531 383.694 288.391 369.962C304.075 373.64 320.158 378.8 336.517 385.862C329.3 398.25 318.223 408.178 305.005 413.886C304.318 414.198 303.969 415.002 304.283 415.71C304.584 416.418 305.419 416.74 306.118 416.427C310.304 414.616 314.281 412.413 318.011 409.857C326.626 403.945 333.802 396.079 339.034 387.003C352.056 392.768 365.23 399.624 378.484 407.927C403.048 423.309 430.619 448.49 430.89 448.741C431.626 449.419 432.713 449.471 433.499 448.929C433.626 448.839 433.74 448.736 433.854 448.633C434.637 447.786 434.585 446.465 433.733 445.687L433.707 445.637Z" fill="#C5CDB3"/>
<path d="M205.884 292.524C219.788 289.915 233.141 285.336 246.05 280.907C254.109 278.146 262.391 275.305 270.639 272.999L270.961 272.907L276.573 271.345L274.266 265.893L273.842 264.894C256.614 224.138 212.083 195.211 165.584 194.547C140.164 194.193 114.164 200.566 94.2476 212.042C70.027 225.994 51.052 249.193 34.1916 271.596C33.3105 272.765 30.7818 275.206 31.873 276.937C32.7344 278.304 35.492 277.775 36.7339 277.601C39.8303 277.151 42.8922 276.255 45.8606 275.267C50.0955 273.862 54.2912 272.785 58.6793 272.088C68.215 270.564 77.9538 270.374 87.5123 271.569C100.553 273.197 112.674 278.134 124.869 282.906C127.216 283.822 129.501 284.725 131.806 285.601C156.693 295.149 180.238 297.345 205.884 292.524Z" fill="#CAD3B7"/>
</svg>
