<svg width="32" height="32" viewBox="0 0 32 32" fill="none" xmlns="http://www.w3.org/2000/svg">
<path d="M16 4C9.38338 4 4 9.38338 4 16C4 22.6166 9.38338 28 16 28C22.6166 28 28 22.6166 28 16C28 9.38338 22.6166 4 16 4ZM12.9225 7.69231H19.0757C21.9603 7.69231 24.3077 10.0388 24.3077 12.9225V19.0757C24.3077 21.9603 21.9612 24.3077 19.0775 24.3077H12.9243C10.0397 24.3077 7.69231 21.9612 7.69231 19.0775V12.9243C7.69231 10.0397 10.0388 7.69231 12.9225 7.69231ZM12.9225 9.53846C11.0569 9.53846 9.53846 11.0578 9.53846 12.9243V19.0775C9.53846 20.9431 11.0578 22.4615 12.9243 22.4615H19.0775C20.9431 22.4615 22.4615 20.9422 22.4615 19.0757V12.9225C22.4615 11.0569 20.9422 9.53846 19.0757 9.53846H12.9225ZM20.3089 11.0763C20.6486 11.0763 20.9237 11.3514 20.9237 11.6911C20.9237 12.0308 20.6486 12.3077 20.3089 12.3077C19.9692 12.3077 19.6923 12.0308 19.6923 11.6911C19.6923 11.3514 19.9692 11.0763 20.3089 11.0763ZM16 11.3846C18.5449 11.3846 20.6154 13.4551 20.6154 16C20.6154 18.5449 18.5449 20.6154 16 20.6154C13.4551 20.6154 11.3846 18.5449 11.3846 16C11.3846 13.4551 13.4551 11.3846 16 11.3846ZM16 13.2308C15.2656 13.2308 14.5612 13.5225 14.0419 14.0419C13.5225 14.5612 13.2308 15.2656 13.2308 16C13.2308 16.7344 13.5225 17.4388 14.0419 17.9581C14.5612 18.4775 15.2656 18.7692 16 18.7692C16.7344 18.7692 17.4388 18.4775 17.9581 17.9581C18.4775 17.4388 18.7692 16.7344 18.7692 16C18.7692 15.2656 18.4775 14.5612 17.9581 14.0419C17.4388 13.5225 16.7344 13.2308 16 13.2308Z" fill="#266F39"/>
</svg>
