<svg width="32" height="32" viewBox="0 0 32 32" fill="none" xmlns="http://www.w3.org/2000/svg">
<path d="M16 4C9.373 4 4 9.373 4 16C4 22.627 9.373 28 16 28C22.627 28 28 22.627 28 16C28 9.373 22.627 4 16 4ZM11.496 9.403C12.338 9.403 12.899 9.964 12.899 10.712C12.899 11.46 12.338 12.021 11.403 12.021C10.561 12.022 10 11.46 10 10.712C10 9.964 10.561 9.403 11.496 9.403ZM13 21H10V13H13V21ZM23 21H20.176V16.628C20.176 15.419 19.423 15.14 19.141 15.14C18.859 15.14 17.917 15.326 17.917 16.628C17.917 16.814 17.917 21 17.917 21H15V13H17.918V14.116C18.294 13.465 19.047 13 20.459 13C21.871 13 23 14.116 23 16.628V21Z" fill="#266F39"/>
</svg>
