<svg width="32" height="32" viewBox="0 0 32 32" fill="none" xmlns="http://www.w3.org/2000/svg">
<path d="M16 4C9.373 4 4 9.373 4 16C4 21.084 7.163 25.426 11.627 27.174C11.522 26.225 11.427 24.768 11.669 23.732C11.887 22.796 13.076 17.767 13.076 17.767C13.076 17.767 12.717 17.048 12.717 15.986C12.717 14.317 13.684 13.072 14.888 13.072C15.912 13.072 16.406 13.841 16.406 14.762C16.406 15.792 15.751 17.331 15.412 18.757C15.129 19.952 16.011 20.926 17.189 20.926C19.322 20.926 20.961 18.677 20.961 15.431C20.961 12.558 18.897 10.549 15.949 10.549C12.535 10.549 10.531 13.11 10.531 15.757C10.531 16.788 10.928 17.894 11.424 18.496C11.522 18.615 11.536 18.719 11.507 18.84C11.416 19.219 11.214 20.034 11.174 20.201C11.122 20.421 11 20.467 10.773 20.361C9.274 19.663 8.337 17.472 8.337 15.712C8.337 11.927 11.087 8.45 16.266 8.45C20.429 8.45 23.664 11.416 23.664 15.381C23.664 19.517 21.056 22.845 17.437 22.845C16.221 22.845 15.078 22.213 14.687 21.467C14.687 21.467 14.085 23.758 13.939 24.32C13.668 25.362 12.937 26.669 12.447 27.466C13.57 27.812 14.763 28 16 28C22.627 28 28 22.627 28 16C28 9.373 22.627 4 16 4Z" fill="#266F39"/>
</svg>
