<svg width="383" height="599" viewBox="0 0 383 599" fill="none" xmlns="http://www.w3.org/2000/svg">
<path d="M235.884 412.345C254.965 410.829 273.54 406.698 291.504 402.71C302.716 400.229 314.234 397.669 325.646 395.798L326.103 395.727L333.858 394.465L331.407 387.152L330.956 385.819C312.573 331.112 255.926 288.016 193.219 280.999C158.951 277.178 123.071 281.939 94.8022 294.057C60.4343 308.807 32.0391 336.129 6.58034 362.708C5.24321 364.094 1.53793 366.895 2.81079 369.28C3.80935 371.146 7.58715 370.843 9.29261 370.785C13.5163 370.615 17.7705 369.875 21.895 368.991C27.7828 367.738 33.579 366.917 39.5817 366.597C52.634 365.891 65.8117 366.949 78.5808 369.744C95.9903 373.564 111.764 381.521 127.659 389.28C130.723 390.78 133.707 392.234 136.692 393.661C169.151 409.229 200.67 415.179 235.882 412.372L235.884 412.345Z" fill="#CAD3B7"/>
<path d="M250.516 92.9114C260.006 67.4859 272.268 43.4226 284.562 19.0294C287.439 13.3189 290.322 8.75109 292.787 5.05761C294.478 22.0648 300.447 38.358 308.987 48.9712C313.32 54.3583 318.892 59.2032 324.283 63.8731C329.373 68.2931 334.639 72.8452 339.316 78.1692C351.566 92.1005 361.264 108.885 367.369 126.736C372.987 143.174 375.513 160.293 374.872 177.634C374.276 193.535 371.007 209.877 365.146 226.201C362.254 234.246 359.038 242.176 355.936 249.841C349.866 264.77 343.689 279.995 340.082 295.64L339.791 296.887L336.958 309.216L329.659 302.711L326.028 299.471C319.382 293.549 311.687 288.263 304.245 283.142C293.266 275.595 281.978 267.825 272.776 257.457C251.058 232.988 236.566 195.308 235.858 161.488C235.52 145.421 238.907 129.59 243.384 114.248C245.496 106.995 247.892 99.9014 250.506 92.8947L250.516 92.9114Z" fill="#CAD3B7"/>
<path d="M352.085 148.583C332.395 164.557 317.915 186.252 310.575 210.379C306.37 191.261 303.063 173.399 300.483 156.801C309.604 138.688 323.17 123.004 339.876 111.388C340.555 110.921 340.718 109.993 340.246 109.317C339.775 108.642 338.83 108.459 338.161 108.942C322.174 120.047 309.001 134.793 299.719 151.807C296.918 133.065 295.058 116.055 293.853 100.784C299.372 89.1304 309.343 79.6133 321.29 74.6406C322.056 74.3244 322.404 73.4456 322.08 72.6965C321.759 71.9343 320.909 71.453 320.107 71.9007C309.003 76.5354 299.502 84.8823 293.405 95.1972C291.08 62.1138 291.894 37.8732 292.987 23.4569C293.088 22.2301 292.157 21.1496 290.919 21.0575C289.697 20.9559 288.6 21.8736 288.511 23.1039C287.526 35.9005 286.784 56.4268 288.222 83.919C281.631 77.8993 273.437 73.7328 264.584 72.2921C263.778 72.175 262.995 72.7121 262.863 73.5222C262.732 74.3322 263.292 75.1021 264.108 75.236C273.398 76.7375 282.015 81.3412 288.461 88.1673C289.405 104.2 291.12 122.495 293.919 142.941C281.079 134.713 265.256 131.209 250.163 133.409C249.35 133.53 248.781 134.279 248.902 135.1C249.026 135.908 249.795 136.481 250.608 136.36C265.541 134.174 281.255 137.818 293.722 146.326C293.926 146.466 294.147 146.384 294.379 146.418C297.082 165.471 300.769 186.366 305.677 208.955C290.331 199.168 270.626 196.752 253.616 203.144C252.844 203.431 252.442 204.295 252.733 205.063C253.024 205.832 254.018 206.253 254.668 205.948C271.491 199.618 291.903 202.519 306.547 213.02C309.879 228.029 313.776 243.795 318.28 260.26C308.858 256.596 298.256 256.547 288.783 260.125C288.007 260.424 287.635 261.283 287.926 262.051C288.23 262.823 288.976 263.22 289.868 262.909C299.154 259.394 310.052 259.663 319.094 263.789C319.147 263.803 319.198 263.774 319.247 263.801C344.454 354.69 388.686 467.016 465.573 596.624C466.131 597.562 467.248 597.946 468.247 597.607C468.388 597.56 468.531 597.5 468.652 597.42C469.729 596.792 470.078 595.435 469.442 594.363C393.72 466.716 349.773 355.974 324.515 266.071C327.312 250.801 334.562 236.286 345.227 224.969C345.798 224.375 345.756 223.42 345.153 222.864C344.549 222.308 343.592 222.333 343.034 222.93C333.301 233.258 326.311 246.166 322.802 259.907C318.695 244.929 315.051 230.499 311.922 216.742C318.459 191.004 333.239 167.714 353.945 150.913C354.581 150.392 354.674 149.459 354.149 148.826C353.623 148.192 352.674 148.079 352.034 148.612L352.085 148.583Z" fill="#C5CDB3"/>
<path d="M389.101 440.447C388.815 440.159 360.758 411.048 335.19 392.659C325.472 385.68 315.755 379.463 306.06 373.875C307.116 364.119 305.37 353.899 301.064 345.069C300.706 344.328 299.802 344.021 299.056 344.376C298.38 344.694 298 345.628 298.359 346.369C302.218 354.303 303.831 363.426 303.141 372.234C291.932 365.924 280.77 360.544 269.692 355.905C269.693 355.891 269.707 355.892 269.707 355.878C271.438 341.224 269.326 326.269 263.602 312.648C263.286 311.881 262.398 311.534 261.64 311.848C260.87 312.134 260.52 313.028 260.836 313.795C266.256 326.691 268.301 340.838 266.803 354.728C257.801 351.058 248.882 347.896 240.047 345.216C239.895 344.976 239.744 344.723 239.449 344.584C239.021 344.384 238.564 344.456 238.182 344.667C233.317 343.221 228.499 341.914 223.702 340.745C223.118 323.664 217.968 307.006 208.774 292.532C208.331 291.84 207.572 291.663 206.699 292.067C206.003 292.506 205.789 293.422 206.232 294.127C214.995 307.911 219.942 323.753 220.652 340.009C201.981 335.659 183.89 333.275 166.614 332.365C163.896 315.906 155.446 300.122 143.118 288.819C142.503 288.255 141.567 288.286 140.999 288.897C140.445 289.508 140.477 290.45 141.093 291.001C152.78 301.711 160.825 316.614 163.547 332.201C148.632 331.554 134.373 331.964 120.966 333.143C116.331 319.947 107.69 307.983 96.5734 299.443C95.9273 298.945 94.9877 299.058 94.4722 299.712C93.9568 300.366 94.0853 301.3 94.745 301.799C105.229 309.855 113.389 321.058 117.888 333.455C104.516 334.758 91.9999 336.733 80.5593 339.134C76.7074 330.805 69.3163 323.963 60.6585 320.789C59.8776 320.502 59.0194 320.892 58.7308 321.667C58.4423 322.442 58.8497 323.295 59.6169 323.581C67.3324 326.406 73.9298 332.428 77.5184 339.775C34.9159 349.083 7.87793 363.339 7.21347 363.699C6.12163 364.349 5.72277 365.65 6.32394 366.731C6.92511 367.813 8.29015 368.213 9.37836 367.631C10.0709 367.259 40.0306 351.51 86.5021 342.504C83.2881 348.956 78.0319 354.317 71.4415 357.413C70.6957 357.755 70.3731 358.651 70.7316 359.393C71.0901 360.134 71.9792 360.454 72.7251 360.112C73.7672 359.623 74.7846 359.078 75.7633 358.489C82.2293 354.637 87.2827 348.706 90.1792 341.774C102.934 339.443 116.893 337.695 131.764 336.868C122.604 349.258 110.52 359.338 96.5974 366.049C95.8652 366.392 95.542 367.301 95.9005 368.043C96.259 368.784 97.1623 369.091 97.9089 368.736C100.487 367.497 103.003 366.146 105.443 364.682C117.368 357.578 127.682 348.003 135.647 336.639C150.618 335.995 166.508 336.394 183.039 338.163C174.038 357.349 157.789 372.903 138.08 381.036C137.35 381.338 136.946 382.216 137.262 382.982C137.578 383.749 138.451 384.109 139.223 383.796C143.196 382.154 147.046 380.234 150.733 378.046C166.231 368.816 178.781 354.904 186.234 338.497C202.222 340.388 218.808 343.7 235.758 348.653C226.196 367.291 209.062 382.212 189.116 388.86C188.334 389.118 187.904 389.968 188.178 390.746C188.438 391.523 189.294 391.95 190.078 391.679C195.683 389.797 201.088 387.306 206.193 384.267C220.032 376.025 231.531 363.801 238.746 349.522C255.282 354.535 272.143 361.16 289.17 369.838C280.594 382.586 268.056 392.438 253.514 397.631C252.758 397.917 252.329 398.753 252.617 399.531C252.891 400.309 253.762 400.71 254.532 400.424C259.137 398.776 263.545 396.695 267.713 394.219C277.341 388.491 285.562 380.576 291.786 371.232C305.329 378.293 318.961 386.531 332.578 396.322C357.816 414.461 385.6 443.286 385.873 443.573C386.614 444.348 387.774 444.479 388.653 443.953C388.795 443.865 388.924 443.763 389.053 443.661C389.95 442.809 389.984 441.394 389.126 440.503L389.101 440.447Z" fill="#C5CDB3"/>
<path d="M217.242 192.72C218.697 205.319 218.125 218.116 217.57 230.488C217.228 238.211 216.872 246.149 217.015 253.877L217.019 254.18L217.123 259.435L211.29 259.324L210.221 259.303C166.625 258.483 126.539 230.668 112.75 191.69C105.221 170.379 103.918 146.317 109.185 125.668C115.587 100.557 132.259 76.7595 148.772 55.0125C149.634 53.8764 151.237 50.924 153.19 51.2618C154.733 51.5282 155.011 54.0309 155.197 55.1364C155.645 57.8983 155.66 60.781 155.562 63.6154C155.426 67.6581 155.589 71.5576 156.169 75.4913C157.419 84.0428 159.995 92.3169 163.835 99.9734C169.072 110.42 177.193 118.978 185.178 127.655C186.713 129.325 188.217 130.948 189.701 132.596C205.815 150.367 214.564 169.478 217.242 192.72Z" fill="#CAD3B7"/>
</svg>
