<svg width="375" height="268" viewBox="0 0 375 268" fill="none" xmlns="http://www.w3.org/2000/svg">
<path d="M214.319 105.846C205.592 101.625 197.751 96.1151 190.172 90.7875C185.438 87.4638 180.575 84.0457 175.596 81.0096L175.402 80.8893L172.013 78.8289L174.994 75.3977L175.541 74.769C197.816 49.1186 235.483 36.4642 267.115 43.9901C284.406 48.1101 300.336 57.053 310.82 68.5323C323.572 82.4898 330.364 102.037 335.934 120.662C336.225 121.635 337.3 123.782 336.111 124.81C335.172 125.622 333.444 124.777 332.649 124.441C330.672 123.593 328.834 122.437 327.083 121.234C324.583 119.52 322.026 118.042 319.238 116.799C313.184 114.09 306.644 112.283 299.866 111.479C290.619 110.381 281.132 111.764 271.638 113.018C269.811 113.258 268.03 113.499 266.242 113.718C246.916 116.143 230.415 113.638 214.319 105.846Z" fill="#CAD3B7"/>
<path d="M46.3404 122.605C42.3771 132.731 40.1714 142.969 38.0331 152.869C36.6939 159.047 35.3252 165.395 33.5546 171.59L33.4814 171.837L32.2724 176.045L37.4521 175.82L38.3968 175.777C77.1558 174.065 118.53 150.818 139.018 119.258C150.205 102.009 156.469 82.6936 156.198 66.2773C155.859 46.3168 146.164 27.6577 136.175 10.63C135.657 9.73699 134.867 7.41171 133.056 7.73119C131.639 7.98254 130.856 9.98775 130.454 10.8819C129.473 13.0996 128.84 15.4149 128.329 17.6834C127.594 20.9205 126.615 24.0482 125.271 27.2114C122.354 34.0909 118.308 40.7829 113.286 47.014C106.434 55.5081 97.4279 62.5605 88.5143 69.7039C86.7939 71.0802 85.1221 72.4215 83.4669 73.7674C65.4367 88.395 53.6315 103.911 46.3239 122.6L46.3404 122.605Z" fill="#CAD3B7"/>
<path d="M314.55 162.485C330.164 174.317 343.958 187.866 357.981 201.504C361.265 204.696 363.716 207.666 365.658 210.164C352.801 208.013 339.178 209.072 328.908 213.096C323.696 215.139 318.505 218.175 313.496 221.118C308.759 223.893 303.873 226.769 298.603 229.07C284.81 235.098 269.712 238.733 254.917 239.581C241.294 240.359 228.105 238.786 215.705 234.897C204.337 231.326 193.451 225.751 183.357 218.321C178.383 214.657 173.589 210.783 168.955 207.043C159.935 199.739 150.734 192.3 140.456 186.62L139.638 186.165L131.535 181.696L138.449 177.749L141.892 175.786C148.186 172.192 154.335 167.719 160.287 163.396C169.062 157.016 178.093 150.459 188.383 145.911C212.67 135.177 244.38 132.237 269.151 138.416C280.92 141.35 291.399 146.909 301.196 153.152C305.829 156.101 310.261 159.221 314.565 162.481L314.55 162.485Z" fill="#CAD3B7"/>
<path d="M243.639 224.302C237.949 207.026 226.541 192.355 211.224 182.321C226.369 183.086 240.332 184.247 253.159 185.678C263.574 195.8 270.892 208.628 274.313 222.903C274.448 223.482 275.073 223.782 275.705 223.578C276.338 223.373 276.754 222.732 276.604 222.157C273.338 208.498 266.584 196.138 257.015 186.119C271.465 187.816 284.375 189.845 295.826 192.001C302.632 198.262 306.55 207.293 306.576 216.842C306.575 217.454 307.109 217.878 307.75 217.793C308.4 217.713 309.005 217.199 308.92 216.536C308.887 207.658 305.678 199.195 300.017 192.784C324.739 197.659 342.097 203.035 352.237 206.669C353.098 206.984 354.162 206.53 354.601 205.66C355.041 204.805 354.704 203.836 353.837 203.53C344.84 200.293 330.158 195.703 309.763 191.298C316.112 187.762 321.597 182.711 325.3 176.648C325.627 176.093 325.472 175.426 324.923 175.171C324.375 174.917 323.647 175.166 323.305 175.725C319.427 182.089 313.497 187.357 306.606 190.629C294.681 188.136 280.88 185.748 265.193 183.712C275.022 176.133 282.315 165.481 285.248 154.224C285.404 153.618 285.031 153.061 284.398 152.985C283.774 152.915 283.128 153.353 282.971 153.96C280.077 165.099 272.715 175.646 262.794 182.902C262.632 183.021 262.625 183.195 262.531 183.355C247.884 181.526 231.604 180.038 213.728 179.091C225.441 170.023 233.109 156.372 233.573 142.912C233.597 142.302 233.089 141.843 232.444 141.899C231.799 141.956 231.195 142.586 231.221 143.112C230.769 156.426 222.536 170.487 210.515 178.911C198.616 178.333 185.998 178.009 172.691 177.983C178.179 171.952 181.397 164.36 181.642 156.86C181.657 156.245 181.145 155.808 180.5 155.865C179.848 155.931 179.336 156.387 179.294 157.088C179.06 164.441 175.593 172.202 169.883 177.869C169.857 177.905 169.863 177.946 169.828 177.976C96.2634 178.079 1.42178 187.585 -115.769 217.087C-116.618 217.301 -117.232 218.026 -117.286 218.809C-117.294 218.919 -117.294 219.034 -117.272 219.137C-117.139 220.033 -116.258 220.552 -115.289 220.308C0.129405 191.253 93.735 181.639 166.599 181.304C176.848 186.329 185.212 194.397 190.229 204.282C190.489 204.809 191.196 204.968 191.781 204.645C192.365 204.322 192.634 203.631 192.368 203.113C187.79 194.092 180.515 186.528 171.59 181.295C183.698 181.312 195.271 181.552 206.199 182.029C222.927 191.805 235.404 207.007 241.389 225.175C241.576 225.734 242.226 225.986 242.844 225.734C243.462 225.482 243.829 224.824 243.634 224.26L243.639 224.302Z" fill="#C5CDB3"/>
<path d="M-10.5353 198.149C-10.2825 198.041 15.0409 187.64 33.0541 176.995C39.8943 172.948 46.2596 168.792 52.2287 164.557C58.0262 166.503 64.8326 167.06 71.4326 166.088C71.986 166.008 72.4095 165.583 72.3804 165.144C72.3562 164.748 71.8729 164.417 71.3195 164.497C65.3917 165.365 59.3023 164.896 54.0003 163.276C60.8071 158.359 67.0239 153.333 72.7585 148.244C72.7667 148.246 72.7628 148.253 72.771 148.256C81.4421 151.253 91.288 152.298 101.233 151.276C101.791 151.222 102.236 150.811 102.235 150.372C102.256 149.931 101.789 149.621 101.231 149.675C91.8149 150.643 82.4886 149.679 74.2331 146.912C78.8308 142.763 83.0908 138.584 87.0296 134.379C87.2178 134.335 87.4144 134.293 87.5762 134.159C87.8109 133.965 87.8841 133.718 87.8509 133.489C90.0011 131.17 92.0527 128.855 94.0137 126.531C104.789 128.674 116.476 128.385 127.844 125.684C128.388 125.552 128.693 125.183 128.667 124.672C128.572 124.248 128.058 124.006 127.505 124.135C116.678 126.712 105.551 127.012 95.2553 125.053C102.762 115.979 108.897 106.926 113.904 98.084C124.842 99.0299 136.834 96.9017 147.035 92.118C147.544 91.8794 147.765 91.3892 147.531 91.0068C147.294 90.6315 146.699 90.5132 146.198 90.7541C136.531 95.2898 125.191 97.3332 114.795 96.515C119.032 88.8616 122.443 81.3982 125.158 74.2669C134.558 73.7493 144.222 70.9753 152.393 66.425C152.869 66.1608 153.04 65.6566 152.766 65.2953C152.491 64.934 151.878 64.867 151.398 65.1382C143.691 69.4289 134.623 72.0623 125.754 72.6236C128.382 65.4924 130.372 58.7096 131.82 52.4245C137.991 51.6168 144.148 48.7582 148.349 44.7167C148.728 44.3522 148.706 43.8506 148.298 43.5898C147.89 43.3289 147.254 43.4183 146.879 43.7758C143.138 47.3781 137.696 49.9418 132.203 50.7534C137.366 27.2958 135.45 11.2127 135.397 10.8161C135.273 10.156 134.566 9.76257 133.739 9.91989C132.911 10.0772 132.312 10.7288 132.394 11.3774C132.447 11.7903 134.541 29.6044 128.195 55.028C125.008 52.4349 123.024 48.9374 122.793 45.0715C122.772 44.6352 122.297 44.3394 121.744 44.4194C121.191 44.4994 120.763 44.9153 120.784 45.3516C120.82 45.9629 120.898 46.5693 121.012 47.1618C121.746 51.0715 124.136 54.5452 127.704 57.0422C125.874 63.9998 123.373 71.4995 120.064 79.3408C114.712 72.8094 111.548 65.0902 110.953 56.8989C110.928 56.4696 110.445 56.1715 109.892 56.2515C109.338 56.3315 108.915 56.7566 108.944 57.1952C109.052 58.7117 109.245 60.2118 109.529 61.6884C110.882 68.8988 114.187 75.6262 119.208 81.3903C115.759 89.2575 111.426 97.4524 106.075 105.784C96.4542 98.3616 90.9555 87.6958 90.9639 76.2956C90.9639 75.8733 90.5216 75.5378 89.9635 75.5921C89.4055 75.6465 88.9569 76.0484 88.9533 76.494C88.9528 78.7923 89.1575 81.0669 89.5708 83.2946C91.3278 92.6652 96.7555 101.175 105.045 107.395C99.7586 115.428 93.4339 123.566 85.9942 131.66C76.8587 124.025 71.9818 112.99 72.9745 101.679C73.0152 101.236 72.5974 100.891 72.043 100.922C71.4926 100.946 71.0066 101.329 70.9742 101.775C70.7031 104.956 70.8634 108.119 71.4415 111.206C73.0104 119.573 77.6582 127.295 84.6858 133.087C77.3157 140.957 68.859 148.764 59.0827 156.364C53.3571 150.085 50.4525 142.162 50.9612 133.867C50.9774 133.433 50.5679 133.091 50.0095 133.129C49.4551 133.16 48.9818 133.555 48.9616 133.996C48.8031 136.623 48.9644 139.21 49.4328 141.73C50.5204 147.55 53.3307 152.953 57.5431 157.523C49.6683 163.545 41.0388 169.445 31.447 175.114C13.6737 185.623 -11.4008 195.924 -11.6496 196.025C-12.3226 196.299 -12.7018 196.882 -12.601 197.414C-12.5829 197.501 -12.5525 197.582 -12.5221 197.664C-12.2229 198.251 -11.3511 198.472 -10.5762 198.154L-10.5353 198.149Z" fill="#C5CDB3"/>
</svg>
