<svg width="380" height="575" viewBox="0 0 380 575" fill="none" xmlns="http://www.w3.org/2000/svg">
<path d="M205.2 182.773C199.641 194.144 195.895 206.33 192.276 218.112C190.013 225.466 187.691 233.025 184.976 240.233L184.871 240.516L183.018 245.415L188.464 247.122L189.462 247.434C230.155 260.197 276.614 246.538 302.421 214.241C316.523 196.581 325.77 174.405 327.786 153.392C330.241 127.841 322.736 100.334 314.692 74.8011C314.273 73.4676 313.773 70.1994 311.849 69.9099C310.33 69.681 309.236 71.9433 308.694 72.923C307.356 75.3756 306.379 78.0761 305.522 80.7663C304.298 84.6024 302.843 88.2109 300.992 91.7224C296.975 99.359 291.823 106.324 285.704 112.317C277.358 120.494 266.97 126.005 256.668 131.668C254.686 132.759 252.749 133.815 250.822 134.901C229.945 146.575 215.448 161.794 205.2 182.773Z" fill="#CAD3B7"/>
<path d="M126.408 53.3189C150.486 40.799 175.71 31.1472 201.178 21.2717C207.14 18.9593 212.34 17.4995 216.645 16.4085C206.507 30.1681 200.024 46.2637 199.255 59.8645C198.863 66.7672 199.755 74.0967 200.629 81.1755C201.447 87.8665 202.308 94.7745 202.213 101.86C201.976 120.41 197.932 139.368 190.507 156.711C183.666 172.679 174.074 187.082 161.981 199.527C150.886 210.934 137.512 220.877 122.226 229.07C114.689 233.106 106.988 236.84 99.5503 240.452C85.0428 247.471 70.2578 254.636 57.0991 263.835L56.0479 264.566L45.6846 271.822L44.6235 262.104L44.0984 257.265C43.1312 248.417 40.9592 239.336 38.8639 230.549C35.7681 217.591 32.5926 204.26 32.706 190.398C32.9729 157.682 47.4552 119.999 69.5851 94.4149C80.0974 82.2588 93.2173 72.7743 106.819 64.3828C113.246 60.4124 119.777 56.751 126.412 53.3L126.408 53.3189Z" fill="#CAD3B7"/>
<path d="M127.092 388.676C110.281 385.843 94.1006 380.707 78.4625 375.734C68.7041 372.636 58.6672 369.452 48.6947 366.889L48.2973 366.786L41.5046 365.046L44.2248 358.667L44.7149 357.504C65.0127 309.766 118.397 275.401 174.517 273.935C205.192 273.14 236.66 280.18 260.847 293.262C290.258 309.162 313.439 335.912 334.074 361.747C335.148 363.099 338.238 365.904 336.933 367.94C335.908 369.538 332.575 368.976 331.076 368.794C327.338 368.323 323.624 367.32 320.031 366.206C314.908 364.625 309.823 363.442 304.521 362.692C292.99 361.063 281.235 360.992 269.71 362.517C253.997 364.607 239.425 370.535 224.764 376.284C221.948 377.388 219.191 378.475 216.423 379.526C186.502 391.017 158.111 393.929 127.096 388.688L127.092 388.676Z" fill="#CAD3B7"/>
<path d="M164.523 162.688C139.203 161.358 113.919 167.765 92.3066 180.762C101.991 163.751 111.503 148.273 120.705 134.222C139.612 126.884 160.19 124.327 180.375 126.894C181.192 127.002 181.935 126.423 182.037 125.605C182.139 124.787 181.56 124.019 180.74 123.929C161.432 121.464 141.773 123.588 123.484 130.002C133.959 114.211 143.974 100.335 153.309 88.1903C165.213 83.2353 178.991 82.8485 191.192 87.1597C191.973 87.438 192.82 87.0192 193.081 86.2456C193.354 85.4647 193.045 84.5377 192.15 84.3335C180.801 80.3359 168.155 80.1682 156.718 83.7422C177.155 57.6219 193.998 40.1696 204.467 30.1982C205.364 29.3553 205.396 27.9292 204.538 27.0312C203.699 26.1374 202.27 26.0836 201.38 26.938C192.076 35.7788 177.775 50.5218 160.426 71.8965C159.565 63.0119 156.272 54.4292 150.664 47.4289C150.144 46.802 149.203 46.6767 148.563 47.1899C147.922 47.703 147.822 48.6499 148.338 49.2957C154.231 56.6344 157.544 65.8246 157.757 75.2109C147.718 87.7466 136.735 102.479 125.116 119.534C121.095 104.824 111.695 91.6228 99.0153 83.1455C98.3311 82.6904 97.4065 82.8651 96.9459 83.5558C96.4968 84.239 96.6844 85.1792 97.3686 85.6342C109.921 94.0146 119.146 107.247 122.703 121.916C122.761 122.156 122.979 122.243 123.129 122.423C112.372 138.381 101.112 156.364 89.6243 176.423C84.7866 158.876 71.7755 143.883 54.8637 137.234C54.0987 136.929 53.2212 137.302 52.9225 138.067C52.6239 138.832 53.0799 139.811 53.7665 140.02C70.4974 146.59 83.7086 162.417 87.547 180.024C79.9664 193.4 72.2975 207.716 64.6121 222.957C60.0714 213.925 52.2326 206.786 42.8023 203.097C42.0258 202.8 41.1746 203.188 40.876 203.953C40.5849 204.73 40.8724 205.524 41.7428 205.891C50.9923 209.502 58.9033 217.002 62.853 226.123C62.8828 226.169 62.9394 226.181 62.9578 226.235C20.7871 310.602 -21.6193 423.63 -51.3579 571.364C-51.5724 572.434 -50.9997 573.468 -50.0315 573.885C-49.8958 573.945 -49.7487 573.996 -49.6051 574.018C-48.3856 574.273 -47.2168 573.499 -46.9706 572.277C-17.6809 426.778 23.8764 315.118 65.3481 231.449C77.6544 221.985 92.7605 216.066 108.261 214.807C109.082 214.749 109.691 214.011 109.616 213.194C109.54 212.377 108.812 211.755 107.998 211.825C93.853 212.972 80.0166 217.873 68.2062 225.725C75.1899 211.853 82.1516 198.698 89.0448 186.388C111.139 171.658 137.715 164.267 164.343 165.664C165.163 165.703 165.858 165.074 165.892 164.251C165.927 163.428 165.298 162.708 164.466 162.676L164.523 162.688Z" fill="#C5CDB3"/>
<path d="M333.475 362.558C332.85 362.15 304.378 343.693 259.472 331.789C268.257 326.605 278.762 324.581 288.883 326.246C289.615 326.368 290.295 325.865 290.417 325.141C290.535 324.404 290.021 323.721 289.312 323.593C277.73 321.696 265.685 324.367 255.96 330.87C241.952 327.332 226.457 324.491 209.731 323.013C221.592 311.322 236.932 303.257 253.306 300.287C254.029 300.155 254.513 299.454 254.379 298.726C254.246 297.997 253.551 297.52 252.824 297.639C235.163 300.852 218.596 309.769 206.142 322.755C203.093 322.519 200.02 322.33 196.901 322.204C196.591 321.923 196.212 321.751 195.772 321.852C195.581 321.894 195.474 322.052 195.327 322.158C185.337 321.785 174.999 321.921 164.337 322.738C175.364 306.865 190.054 293.67 207.039 284.531C207.686 284.179 207.934 283.367 207.582 282.714C207.229 282.061 206.42 281.808 205.773 282.161C187.755 291.852 172.232 305.989 160.837 323.054C147 324.298 132.66 326.709 117.961 330.475C124.977 312.651 137.348 296.864 152.989 285.965C153.589 285.537 153.742 284.7 153.326 284.092C152.902 283.498 152.067 283.329 151.463 283.746C135 295.227 122.028 311.927 114.918 330.788C114.861 330.945 114.894 331.102 114.891 331.269C103.811 334.25 92.5572 337.997 81.1413 342.724C81.5468 332.001 84.2967 321.357 89.2291 311.863C89.5753 311.214 89.3109 310.383 88.6679 310.044C88.0098 309.696 87.2082 309.952 86.862 310.601C81.5335 320.836 78.594 332.364 78.3641 343.918C65.8629 349.238 53.2129 355.584 40.454 363.316C16.4241 377.868 -10.5862 401.863 -10.8467 402.104C-11.6752 402.841 -11.741 404.112 -11.0175 404.952C-10.9435 405.033 -10.8729 405.102 -10.8057 405.159C-10.0544 405.786 -8.95004 405.788 -8.19003 405.123C-7.91777 404.878 18.8202 381.127 42.5257 366.772C52.6296 360.659 62.6646 355.409 72.6031 350.839C73.7738 358.132 77.6124 365.04 83.2546 369.795C83.542 370.044 83.8412 370.29 84.1453 370.509C84.7334 370.966 85.564 370.856 86.0194 370.277C86.4714 369.687 86.3649 368.964 85.7813 368.391C79.9677 363.967 76.1123 356.999 75.1528 349.736C86.5957 344.618 97.9095 340.419 109.019 337.097C113.323 355.155 123.608 371.954 137.774 383.893C138.693 384.663 139.621 385.419 140.58 386.153C141.168 386.61 142.011 386.495 142.451 385.908C142.903 385.318 142.737 384.433 142.201 384.025C126.991 372.336 115.982 355.004 111.58 336.297C124.879 332.473 137.914 329.85 150.556 328.195C153.595 345.735 163.029 362.178 176.611 373.633C178.405 375.149 180.275 376.579 182.218 377.911C182.831 378.323 183.664 378.173 184.074 377.57C184.492 376.951 184.335 376.14 183.727 375.701C167.777 364.749 156.587 347.009 153.239 327.909C167.893 326.149 182.009 325.694 195.461 326.196C199.133 340.424 207.137 353.303 218.369 362.763C218.635 362.981 218.889 363.202 219.154 363.419C219.722 363.895 220.571 363.804 221.027 363.226C221.486 362.659 221.395 361.816 220.842 361.349C220.842 361.349 220.842 361.349 220.839 361.337C209.875 352.325 201.95 339.984 198.249 326.276C214.995 327.071 230.644 329.344 244.924 332.42C246.208 340.459 249.706 348.168 255.075 354.266C255.116 354.318 255.168 354.367 255.217 354.404C255.717 354.823 256.455 354.828 256.959 354.376C257.515 353.884 257.564 353.039 257.073 352.478C252.284 347.031 249.1 340.19 247.769 333.046C298.102 344.412 330.621 365.474 331.28 365.911C332.205 366.527 333.451 366.271 334.048 365.345C334.656 364.417 334.39 363.228 333.471 362.546L333.475 362.558Z" fill="#C5CDB3"/>
</svg>
