<svg width="387" height="317" viewBox="0 0 387 317" fill="none" xmlns="http://www.w3.org/2000/svg">
<path d="M151.031 161.081C157.854 168.173 163.379 176.179 168.72 183.921C172.057 188.752 175.483 193.718 179.155 198.362L179.297 198.545L181.799 201.7L177.753 203.917L177.01 204.323C146.771 220.902 106.453 219.689 78.9849 201.386C63.9732 191.375 51.9546 177.252 46.0142 162.631C38.7879 144.852 39.203 123.849 40.4575 104.155C40.5225 103.127 40.2552 100.704 41.7496 100.144C42.9296 99.7012 44.2771 101.114 44.9155 101.714C46.4997 103.218 47.843 104.965 49.0865 106.727C50.8624 109.239 52.7776 111.547 54.9935 113.712C59.8042 118.423 65.3942 122.446 71.5649 125.598C79.9826 129.899 89.5021 131.923 98.983 134.072C100.807 134.487 102.588 134.884 104.367 135.305C123.621 139.8 138.45 147.995 151.031 161.081Z" fill="#CAD3B7"/>
<path d="M317.599 212.742C325.533 204 331.906 194.567 338.073 185.448C341.925 179.759 345.878 173.911 350.132 168.348L350.305 168.127L353.201 164.349L348.362 162.867L347.479 162.599C311.261 151.533 263.493 160.974 231.315 185.542C213.738 198.972 199.791 216.074 193.059 232.452C184.883 252.369 185.828 274.076 187.734 294.261C187.83 295.318 187.564 297.885 189.358 298.164C190.763 298.382 192.332 296.65 193.08 295.895C194.921 294.018 196.485 291.929 197.918 289.846C199.966 286.876 202.193 284.095 204.769 281.4C210.364 275.534 216.915 270.227 224.162 265.698C234.048 259.526 245.292 255.495 256.491 251.342C258.651 250.543 260.752 249.763 262.84 248.973C285.569 240.397 302.975 228.889 317.612 212.752L317.599 212.742Z" fill="#CAD3B7"/>
<path d="M103.823 82.8194C93.4575 67.9881 85.4499 52.3285 77.2575 36.5218C75.3392 32.8218 74.1246 29.5742 73.2158 26.8822C84.5672 32.8258 97.8323 36.3678 109.03 36.3735C114.712 36.3769 120.743 35.5518 126.568 34.746C132.074 33.9901 137.758 33.199 143.591 33.0074C158.86 32.5004 174.475 34.3935 188.77 38.4892C201.931 42.263 213.81 47.8372 224.084 55.0674C233.501 61.7017 241.719 69.8335 248.502 79.2407C251.843 83.8789 254.935 88.6316 257.927 93.2222C263.74 102.177 269.676 111.302 277.281 119.324L277.885 119.965L283.884 126.282L275.886 127.3L271.905 127.804C264.624 128.732 257.155 130.432 249.927 132.072C239.268 134.496 228.303 136.983 216.892 137.403C189.962 138.393 158.907 130.542 137.793 117.41C127.76 111.172 119.92 103.185 112.979 94.8543C109.695 90.9174 106.665 86.9042 103.808 82.8176L103.823 82.8194Z" fill="#CAD3B7"/>
<path d="M193.759 54.7611C192.727 70.8708 198.064 86.6835 208.815 99.9336C194.789 94.3929 182.025 88.9078 170.436 83.568C164.349 71.834 162.193 58.8698 164.256 45.9733C164.343 45.4517 163.864 45.0008 163.19 44.9649C162.517 44.9289 161.886 45.3235 161.814 45.8469C159.833 58.1836 161.63 70.5798 166.956 81.9545C153.931 75.8691 142.485 70.0082 132.464 64.5164C128.356 57.1403 128.003 48.4132 131.522 40.52C131.749 40.015 131.402 39.4921 130.764 39.354C130.121 39.209 129.359 39.4378 129.193 40.0126C125.93 47.3542 125.824 55.3826 128.794 62.5112C107.243 50.4726 92.8351 40.4063 84.6011 34.1186C83.9051 33.5794 82.7312 33.6094 81.9941 34.1854C81.2604 34.7493 81.2198 35.658 81.9253 36.1921C89.2257 41.7811 101.397 50.331 119.035 60.5795C111.723 61.4407 104.667 63.8339 98.9186 67.6398C98.4038 67.9918 98.303 68.5931 98.727 68.9812C99.151 69.3693 99.9306 69.3991 100.461 69.0489C106.487 65.0506 114.044 62.6228 121.769 62.1548C132.113 68.0791 144.267 74.5244 158.335 81.2903C146.236 84.3628 135.393 90.7943 128.447 99.1389C128.074 99.5891 128.22 100.169 128.79 100.437C129.353 100.698 130.127 100.546 130.5 100.095C137.367 91.8352 148.236 85.5133 160.301 82.7371C160.499 82.6917 160.57 82.5499 160.718 82.4486C173.88 88.7067 188.711 95.2124 205.251 101.789C190.819 105.48 178.51 114.266 173.079 125.231C172.83 125.727 173.139 126.27 173.77 126.433C174.401 126.595 175.205 126.271 175.375 125.828C180.742 114.981 193.737 106.039 208.22 102.979C219.25 107.314 231.053 111.672 243.617 116.007C236.194 119.208 230.338 124.434 227.324 130.547C227.081 131.05 227.403 131.576 228.034 131.739C228.674 131.896 229.327 131.685 229.627 131.12C232.576 125.124 238.73 119.839 246.228 117.01C246.266 116.99 246.276 116.954 246.32 116.94C315.871 140.701 409.014 163.596 530.694 177.224C531.576 177.322 532.425 176.922 532.767 176.293C532.815 176.205 532.857 176.11 532.874 176.018C533.081 175.235 532.441 174.521 531.435 174.408C411.596 160.986 319.58 138.581 250.606 115.239C242.785 107.767 237.875 98.3939 236.8 88.6051C236.75 88.086 236.141 87.7261 235.469 87.8029C234.797 87.8797 234.286 88.3638 234.346 88.8777C235.326 97.8105 239.394 106.414 245.887 113.629C234.451 109.69 223.605 105.74 213.455 101.803C201.275 88.3091 195.125 71.7117 196.208 54.7695C196.239 54.2475 195.719 53.8292 195.041 53.8366C194.364 53.844 193.773 54.2684 193.749 54.7974L193.759 54.7611Z" fill="#C5CDB3"/>
<path d="M401.796 156.515C401.519 156.539 373.909 158.52 352.889 163.15C344.905 164.912 337.31 166.94 330.044 169.176C325.563 165.336 319.567 162.542 313.11 161.333C312.57 161.23 312.001 161.512 311.841 161.957C311.695 162.358 311.997 162.846 312.538 162.949C318.334 164.04 323.711 166.51 327.877 169.864C319.554 172.501 311.724 175.441 304.31 178.601C304.303 178.596 304.31 178.591 304.303 178.586C297.638 172.756 289.067 168.476 279.526 166.215C278.992 166.085 278.41 166.347 278.224 166.782C278.018 167.213 278.313 167.674 278.847 167.804C287.881 169.945 296.011 173.973 302.394 179.437C296.42 182.04 290.742 184.784 285.348 187.658C285.157 187.641 284.959 187.618 284.754 187.697C284.456 187.812 284.284 188.033 284.217 188.271C281.262 189.864 278.4 191.485 275.616 193.145C266.66 187.47 255.837 183.909 244.279 182.845C243.725 182.796 243.288 183.062 243.095 183.578C243.001 184.03 243.37 184.44 243.93 184.494C254.941 185.502 265.257 188.869 273.851 194.203C263.119 200.734 253.653 207.697 245.309 214.821C235.696 210.28 223.811 208.443 212.436 209.83C211.868 209.899 211.458 210.313 211.509 210.769C211.567 211.22 212.061 211.533 212.622 211.459C223.402 210.142 234.654 211.849 243.826 216.085C236.692 222.283 230.396 228.565 224.879 234.747C216.051 232.165 206.022 231.735 196.606 233.559C196.058 233.664 195.687 234.108 195.785 234.557C195.882 235.006 196.416 235.274 196.97 235.163C205.852 233.444 215.274 233.817 223.633 236.181C218.195 242.391 213.49 248.466 209.492 254.226C203.498 252.995 196.645 253.804 191.08 256.43C190.578 256.667 190.385 257.172 190.647 257.565C190.91 257.958 191.53 258.079 192.026 257.848C196.983 255.505 203.056 254.754 208.431 255.758C193.73 277.333 188.647 293.922 188.527 294.333C188.36 295.029 188.839 295.652 189.664 295.768C190.488 295.884 191.315 295.435 191.515 294.765C191.642 294.337 197.298 275.972 213.918 252.836C215.734 256.459 216.063 260.582 214.631 264.494C214.465 264.934 214.774 265.384 215.315 265.487C215.855 265.59 216.424 265.318 216.59 264.878C216.817 264.26 217.003 263.632 217.151 263.007C218.141 258.886 217.429 254.652 215.224 250.999C219.857 244.698 225.336 238.081 231.7 231.39C233.824 239.633 233.439 248.335 230.501 256.658C230.342 257.092 230.657 257.547 231.198 257.65C231.738 257.753 232.307 257.47 232.467 257.026C233.013 255.485 233.473 253.933 233.841 252.375C235.668 244.775 235.502 237.011 233.355 229.638C239.857 222.968 247.31 216.264 255.752 209.76C261.405 220.293 261.905 232.686 257.051 243.995C256.871 244.414 257.134 244.893 257.668 245.023C258.202 245.152 258.783 244.901 258.976 244.46C259.954 242.18 260.733 239.856 261.302 237.509C263.677 227.633 262.325 217.402 257.379 208.5C265.635 202.271 274.887 196.278 285.14 190.698C290.259 201.282 290.033 213.837 284.315 224.733C284.089 225.16 284.325 225.639 284.846 225.791C285.36 225.949 285.968 225.728 286.187 225.297C287.788 222.23 288.986 219.038 289.769 215.786C291.89 206.967 290.917 197.774 286.945 189.712C297.039 184.331 308.102 179.369 320.284 175.049C322.858 183.164 322.149 191.982 318.156 200.045C317.957 200.47 318.186 200.945 318.714 201.091C319.235 201.243 319.836 201.007 320.042 200.576C321.304 198.021 322.256 195.401 322.899 192.747C324.377 186.614 324.101 180.328 322.187 174.405C331.958 171.023 342.368 168.012 353.561 165.545C374.303 160.971 401.642 159.008 401.913 158.99C402.646 158.94 403.241 158.486 403.375 157.925C403.395 157.833 403.402 157.742 403.409 157.651C403.385 156.97 402.68 156.464 401.835 156.524L401.796 156.515Z" fill="#C5CDB3"/>
</svg>
