<svg width="84" height="27" viewBox="0 0 84 27" fill="none" xmlns="http://www.w3.org/2000/svg">
<path d="M12 22.3604C10.6333 22.3604 9.34167 22.0979 8.125 21.5729C6.90833 21.0479 5.84583 20.3312 4.9375 19.4229C4.02917 18.5145 3.3125 17.452 2.7875 16.2354C2.2625 15.0187 2 13.727 2 12.3604C2 10.977 2.2625 9.67702 2.7875 8.46035C3.3125 7.24368 4.02917 6.18535 4.9375 5.28535C5.84583 4.38535 6.90833 3.67285 8.125 3.14785C9.34167 2.62285 10.6333 2.36035 12 2.36035C13.3833 2.36035 14.6833 2.62285 15.9 3.14785C17.1167 3.67285 18.175 4.38535 19.075 5.28535C19.975 6.18535 20.6875 7.24368 21.2125 8.46035C21.7375 9.67702 22 10.977 22 12.3604C22 13.727 21.7375 15.0187 21.2125 16.2354C20.6875 17.452 19.975 18.5145 19.075 19.4229C18.175 20.3312 17.1167 21.0479 15.9 21.5729C14.6833 22.0979 13.3833 22.3604 12 22.3604Z" fill="#266F39"/>
<path d="M42 22.3604C40.6333 22.3604 39.3417 22.0979 38.125 21.5729C36.9083 21.0479 35.8458 20.3312 34.9375 19.4229C34.0292 18.5145 33.3125 17.452 32.7875 16.2354C32.2625 15.0187 32 13.727 32 12.3604C32 10.977 32.2625 9.67702 32.7875 8.46035C33.3125 7.24368 34.0292 6.18535 34.9375 5.28535C35.8458 4.38535 36.9083 3.67285 38.125 3.14785C39.3417 2.62285 40.6333 2.36035 42 2.36035C43.3833 2.36035 44.6833 2.62285 45.9 3.14785C47.1167 3.67285 48.175 4.38535 49.075 5.28535C49.975 6.18535 50.6875 7.24368 51.2125 8.46035C51.7375 9.67702 52 10.977 52 12.3604C52 13.727 51.7375 15.0187 51.2125 16.2354C50.6875 17.452 49.975 18.5145 49.075 19.4229C48.175 20.3312 47.1167 21.0479 45.9 21.5729C44.6833 22.0979 43.3833 22.3604 42 22.3604Z" fill="#FDFDFD"/>
<path d="M72 22.3604C70.6333 22.3604 69.3417 22.0979 68.125 21.5729C66.9083 21.0479 65.8458 20.3312 64.9375 19.4229C64.0292 18.5145 63.3125 17.452 62.7875 16.2354C62.2625 15.0187 62 13.727 62 12.3604C62 10.977 62.2625 9.67702 62.7875 8.46035C63.3125 7.24368 64.0292 6.18535 64.9375 5.28535C65.8458 4.38535 66.9083 3.67285 68.125 3.14785C69.3417 2.62285 70.6333 2.36035 72 2.36035C73.3833 2.36035 74.6833 2.62285 75.9 3.14785C77.1167 3.67285 78.175 4.38535 79.075 5.28535C79.975 6.18535 80.6875 7.24368 81.2125 8.46035C81.7375 9.67702 82 10.977 82 12.3604C82 13.727 81.7375 15.0187 81.2125 16.2354C80.6875 17.452 79.975 18.5145 79.075 19.4229C78.175 20.3312 77.1167 21.0479 75.9 21.5729C74.6833 22.0979 73.3833 22.3604 72 22.3604Z" fill="#FDFDFD"/>
</svg>
