<svg width="32" height="32" viewBox="0 0 32 32" fill="none" xmlns="http://www.w3.org/2000/svg">
<path d="M16 4C9.373 4 4 9.373 4 16C4 22.627 9.373 28 16 28C22.627 28 28 22.627 28 16C28 9.373 22.627 4 16 4ZM22.464 13.535C22.47 13.668 22.473 13.8 22.473 13.932C22.473 18 19.378 22.688 13.717 22.688C11.978 22.688 10.361 22.179 9 21.305C9.241 21.334 9.486 21.347 9.735 21.347C11.178 21.347 12.504 20.856 13.556 20.029C12.209 20.004 11.072 19.114 10.681 17.892C10.869 17.928 11.062 17.947 11.26 17.947C11.541 17.947 11.814 17.909 12.071 17.839C10.663 17.557 9.602 16.313 9.602 14.822C9.602 14.809 9.602 14.796 9.602 14.783C10.017 15.014 10.491 15.152 10.996 15.168C10.171 14.617 9.627 13.674 9.627 12.607C9.627 12.042 9.778 11.513 10.043 11.06C11.561 12.922 13.829 14.148 16.386 14.276C16.334 14.051 16.307 13.816 16.307 13.575C16.307 11.876 17.685 10.497 19.384 10.497C20.269 10.497 21.069 10.871 21.63 11.469C22.331 11.33 22.99 11.075 23.585 10.722C23.355 11.441 22.867 12.043 22.231 12.425C22.853 12.351 23.446 12.186 23.999 11.941C23.588 12.559 23.067 13.1 22.464 13.535Z" fill="#266F39"/>
</svg>
